<svg xmlns="http://www.w3.org/2000/svg" xmlns:xlink="http://www.w3.org/1999/xlink" viewBox="0 0 512 512"><defs><symbol id="a" viewBox="0 0 359 231"><path fill="none" stroke="#e2e8f0" stroke-linecap="round" stroke-linejoin="round" stroke-width="15" d="M295.5 223.5a56 56 0 000-112l-2.5.1a83.9 83.9 0 00-153-64.2 56 56 0 00-84.6 48.1 56.6 56.6 0 00.8 9 60 60 0 0011.2 119"/></symbol><symbol id="b" overflow="visible" viewBox="0 0 258 66"><path fill="none" stroke="#e2e8f0" stroke-linecap="round" stroke-miterlimit="10" stroke-width="18" d="M9 57h240"><animateTransform additive="sum" attributeName="transform" dur="6s" repeatCount="indefinite" type="translate" values="-24 0; 24 0; -24 0"/></path><path fill="none" stroke="#e2e8f0" stroke-linecap="round" stroke-miterlimit="10" stroke-width="18" d="M9 9h240"><animateTransform additive="sum" attributeName="transform" dur="6s" repeatCount="indefinite" type="translate" values="24 0; -24 0; 24 0"/></path></symbol><symbol id="freeze" viewBox="0 0 512 512"><path fill="none" stroke="#3fbfdc" stroke-linecap="round" stroke-linejoin="round" stroke-width="15" d="m372 295.2-34.3-19.7a83.8 83.8 0 000-39l34.3-19.7a24 24 0 10-24-41.6L313.7 195a81.4 81.4 0 00-33.7-19.4V136a24 24 0 00-48 0v39.6a84 84 0 00-33.7 19.4L164 175.2a24 24 0 10-24 41.6l34.3 19.7a83.8 83.8 0 000 39L140 295.1a24 24 0 1024 41.6l34.3-19.8a80.6 80.6 0 0033.7 19.4V376a24 24 0 0048 0v-39.7a84 84 0 0033.7-19.3l34.3 19.8a24 24 0 1024-41.6Zm-134-8a36 36 0 1149.2-13.2 36 36 0 01-49.2 13.2Z"><animateTransform attributeName="transform" calcMode="spline" dur="6s" keySplines=".42, 0, .58, 1; .42, 0, .58, 1; .42, 0, .58, 1; .42, 0, .58, 1" repeatCount="indefinite" type="scale" values="1 1; .9 .9; 1 1; .9 .9; 1 1"/><animateTransform additive="sum" attributeName="transform" calcMode="spline" dur="6s" keySplines=".42, 0, .58, 1; .42, 0, .58, 1; .42, 0, .58, 1; .42, 0, .58, 1" repeatCount="indefinite" type="translate" values="0 0; 25.75 25.75; 0 0; 25.75 25.75; 0 0"/><animateTransform additive="sum" attributeName="transform" calcMode="spline" dur="6s" keySplines=".42, 0, .58, 1; .42, 0, .58, 1" repeatCount="indefinite" type="rotate" values="-6 256 256; 6 256 256; -6 256 256"/></path></symbol></defs><use xlink:href="#a" width="359" height="231" transform="translate(76.5 140.5)"/><use xlink:href="#b" width="258" height="66" transform="translate(127 405)"/><use xlink:href="#freeze" width="128" height="128" transform="translate(64 368)"/><use xlink:href="#freeze" width="128" height="128" transform="translate(150 308)"/><use xlink:href="#freeze" width="128" height="128" transform="translate(280 388)"/></svg>
